<?xml version="1.0" encoding="UTF-8" standalone="no"?>
<!-- Created with Inkscape (http://www.inkscape.org/) -->

<svg
   width="15.758334mm"
   height="15.758334mm"
   viewBox="0 0 15.758334 15.758334"
   version="1.1"
   id="svg5"
   inkscape:version="1.1.1 (1:1.1+202109281949+c3084ef5ed)"
   sodipodi:docname="favicon.svg"
   xmlns:inkscape="http://www.inkscape.org/namespaces/inkscape"
   xmlns:sodipodi="http://sodipodi.sourceforge.net/DTD/sodipodi-0.dtd"
   xmlns="http://www.w3.org/2000/svg"
   xmlns:svg="http://www.w3.org/2000/svg">
  <sodipodi:namedview
     id="namedview7"
     pagecolor="#ffffff"
     bordercolor="#999999"
     borderopacity="1"
     inkscape:pageshadow="0"
     inkscape:pageopacity="0"
     inkscape:pagecheckerboard="0"
     inkscape:document-units="px"
     showgrid="false"
     showguides="false"
     lock-margins="true"
     fit-margin-top="1"
     fit-margin-left="1"
     fit-margin-right="1"
     fit-margin-bottom="1"
     inkscape:zoom="4"
     inkscape:cx="23.5"
     inkscape:cy="42.25"
     inkscape:window-width="1875"
     inkscape:window-height="1035"
     inkscape:window-x="45"
     inkscape:window-y="45"
     inkscape:window-maximized="1"
     inkscape:current-layer="layer1" />
  <defs
     id="defs2" />
  <g
     inkscape:label="Layer 1"
     inkscape:groupmode="layer"
     id="layer1"
     transform="translate(-22.176575,-14.915709)">
    <g
       id="g10591">
      <rect
         style="fill:#ffffff;fill-opacity:1;stroke:#ff4b4b;stroke-width:0.529167;stroke-opacity:1;-inkscape-stroke:none;stop-color:#000000"
         id="rect972"
         width="13.229167"
         height="13.229167"
         x="23.441158"
         y="16.180292"
         rx="1.0583333"
         ry="1.0583333" />
      <g
         aria-label="B"
         id="text4590"
         style="font-size:11.2889px;line-height:1.25;font-family:'RobotoMono Nerd Font';-inkscape-font-specification:'RobotoMono Nerd Font';letter-spacing:0px;word-spacing:0px;fill:#ff4b4b;stroke-width:0.264583">
        <path
           d="m 27.937992,26.807728 v -8.025703 h 2.193839 q 0.48507,0.0055 0.942579,0.132292 0.463021,0.121267 0.821312,0.380339 0.35829,0.253559 0.573264,0.650435 0.220487,0.391363 0.214974,0.937067 0,0.341753 -0.104731,0.617361 -0.104731,0.270096 -0.286632,0.48507 -0.176389,0.209462 -0.418924,0.369315 -0.242535,0.15434 -0.523655,0.259071 0.347266,0.08268 0.63941,0.25356 0.297657,0.170876 0.512631,0.424436 0.214974,0.248047 0.336242,0.567752 0.126779,0.319705 0.126779,0.68902 0.0055,0.534679 -0.198437,0.953603 -0.20395,0.413412 -0.551216,0.705557 -0.347266,0.286632 -0.804775,0.440972 -0.451997,0.154341 -0.948091,0.159853 z m 0.661459,-3.858511 v 3.285246 h 1.879646 q 0.363802,-0.0055 0.694532,-0.121267 0.330729,-0.121268 0.578777,-0.336242 0.253559,-0.214974 0.396875,-0.518143 0.148828,-0.308681 0.148828,-0.700044 0,-0.380339 -0.143316,-0.672483 -0.137804,-0.297657 -0.385851,-0.501607 -0.242535,-0.203949 -0.567752,-0.314193 -0.319705,-0.110243 -0.672484,-0.121267 z m 0,-0.567752 h 1.615062 q 0.347266,-0.0055 0.672484,-0.09922 0.325217,-0.09371 0.573264,-0.28112 0.253559,-0.187414 0.4079,-0.468534 0.15434,-0.28112 0.15434,-0.666971 0,-0.402387 -0.159852,-0.683508 -0.159853,-0.286632 -0.424436,-0.463021 -0.264584,-0.181901 -0.600826,-0.264583 -0.336241,-0.0882 -0.689019,-0.09371 h -1.548917 z"
           style="font-weight:300;-inkscape-font-specification:'RobotoMono Nerd Font Light'"
           id="path10876" />
      </g>
    </g>
  </g>
</svg>
